<?xml version="1.0" standalone="no"?>
<!DOCTYPE svg PUBLIC "-//W3C//DTD SVG 20010904//EN"
 "http://www.w3.org/TR/2001/REC-SVG-20010904/DTD/svg10.dtd">
<svg version="1.0" xmlns="http://www.w3.org/2000/svg"
 width="747.000000pt" height="454.000000pt" viewBox="0 0 747.000000 454.000000"
 preserveAspectRatio="xMidYMid meet">

<g transform="translate(0.000000,454.000000) scale(0.100000,-0.100000)"
fill="#000000" stroke="none">
<path d="M80 4297 c0 -42 34 -118 300 -682 23 -49 59 -128 80 -175 21 -47 74
-161 119 -253 45 -92 81 -170 81 -172 0 -2 34 -75 76 -162 111 -230 211 -444
369 -788 156 -339 202 -440 235 -510 18 -38 77 -167 132 -285 55 -118 160
-343 233 -500 73 -157 155 -334 183 -395 28 -60 68 -144 89 -185 l38 -75 386
-3 386 -2 30 67 c17 38 108 235 203 438 94 204 197 426 227 495 30 69 101 222
158 340 57 118 128 269 158 335 151 328 403 870 439 945 22 47 76 164 120 260
44 96 105 229 135 295 31 66 80 172 109 235 30 63 60 126 67 140 l13 25 599 3
c657 2 690 0 859 -56 214 -72 356 -212 418 -412 19 -63 23 -97 23 -215 0 -118
-4 -151 -23 -210 -75 -232 -270 -394 -558 -467 -88 -21 -100 -22 -902 -25
l-814 -4 -65 -137 c-35 -75 -75 -162 -88 -192 -13 -30 -58 -127 -100 -215 -43
-88 -110 -232 -150 -320 -104 -228 -198 -431 -266 -574 l-59 -124 2 -311 3
-311 375 4 c206 2 377 5 379 7 2 2 6 347 9 766 2 420 5 764 7 766 2 2 1212 4
1267 2 6 0 226 -306 463 -645 129 -185 240 -341 357 -505 69 -97 270 -382 273
-388 3 -5 883 -8 899 -2 13 4 0 28 -67 120 -46 63 -137 189 -202 280 -142 197
-207 288 -297 412 -38 51 -99 138 -138 193 -39 55 -118 168 -177 250 -211 298
-284 406 -278 414 3 5 37 19 77 31 241 73 529 295 670 516 137 214 208 540
178 814 -30 279 -112 503 -245 670 -175 220 -438 383 -740 459 -237 60 -263
61 -1296 61 l-940 0 -28 -62 c-16 -35 -47 -103 -69 -153 -44 -99 -115 -258
-277 -620 -59 -132 -155 -343 -212 -470 -58 -126 -134 -293 -168 -370 -34 -77
-115 -257 -180 -400 -64 -143 -121 -269 -125 -280 -4 -11 -69 -155 -143 -320
-74 -165 -168 -374 -209 -464 -40 -90 -77 -163 -83 -163 -9 0 -35 52 -199 417
-37 83 -87 193 -111 245 -24 52 -94 208 -156 345 -61 138 -163 363 -227 500
-63 138 -136 300 -162 360 -26 61 -72 164 -103 230 -81 177 -179 396 -230 515
-25 58 -61 137 -80 175 -19 39 -53 113 -76 165 -23 52 -68 151 -99 220 l-57
125 -413 3 -412 2 0 -43z"/>
</g>
</svg>
